<?xml version="1.0" encoding="utf-8"?>
<!-- Generator: Adobe Illustrator 24.0.3, SVG Export Plug-In . SVG Version: 6.00 Build 0)  -->
<svg fill="#FFFFFF" version="1.1" id="Layer_1" xmlns="http://www.w3.org/2000/svg" xmlns:xlink="http://www.w3.org/1999/xlink" x="0px" y="0px"
	 viewBox="0 0 400 400" style="enable-background:new 0 0 400 400;" xml:space="preserve">
<style type="text/css">
	.st0{fill:none;}
	.st1{fill:url(#SVGID_1_);}
	.st2{fill:#8278FF;}
</style>
<title>GC_Simbolo_Positivo</title>
<rect class="st0"/>
<linearGradient id="SVGID_1_" gradientUnits="userSpaceOnUse" x1="167.751" y1="306.6782" x2="382.2629" y2="182.8313" gradientTransform="matrix(1 0 0 -1 0 402)">
	<stop  offset="0.2232" style="stop-color:#8278FF;stop-opacity:0"/>
	<stop  offset="1" style="stop-color:#8278FF"/>
</linearGradient>
<path class="st1" d="M336.3,279.2l-122.5-70.8c-7.6-4.4-13.7-15-13.7-23.8V43.2c0-8.8,6.1-12.3,13.7-7.9L336.3,106
	c7.6,4.4,13.7,15,13.7,23.8v141.5C350,280.1,343.9,283.6,336.3,279.2z"/>
<path class="st2" d="M63.7,106.1l122.5-70.8c7.6-4.4,19.9-4.4,27.5,0v-0.1L336.3,106c7.6,4.4,13.7,15,13.7,23.8v0.2
	c0-8.8-6.1-12.3-13.7-7.9l-122.6,70.8c-7.6,4.4-13.7,15-13.7,23.8v141.5c0,8.8-6.1,12.3-13.7,7.9L63.7,295.3
	c-7.6-4.4-13.7-15-13.7-23.8V129.8c0-8.8,6.2-19.4,13.7-23.8 M154.2,286.8v-56.6c-0.2-3.9-2.2-7.4-5.5-9.5l-49-28.3
	c-3-1.8-5.5-0.3-5.5,3.2v56.6c0.2,3.9,2.2,7.4,5.5,9.5l49,28.3C151.8,291.7,154.2,290.3,154.2,286.8z"/>
</svg>
